<svg width="20" height="20" viewBox="0 0 20 20" fill="none" xmlns="http://www.w3.org/2000/svg">
  <path d="M9.99901 19.9721C10.6482 19.9721 11.1978 19.5435 11.3781 18.9537H8.61991C8.80026 19.5435 9.34975 19.9721 9.99901 19.9721ZM12.6508 16.0778H7.34256C7.01065 16.0778 6.73647 16.3519 6.73647 16.6981C6.73647 17.0299 7.01065 17.304 7.34256 17.304H7.9194C7.58768 17.304 7.31366 17.5781 7.31366 17.9098C7.31366 18.256 7.58764 18.5301 7.9194 18.5301H12.0738C12.4199 18.5301 12.6941 18.256 12.6941 17.9098C12.6941 17.5781 12.42 17.304 12.0738 17.304H12.6508C12.997 17.304 13.271 17.0299 13.271 16.6981C13.271 16.3519 12.997 16.0778 12.6508 16.0778ZM17.7288 13.2143L16.7297 12.6374C16.5371 12.5263 16.291 12.5922 16.1799 12.7847C16.077 12.9629 16.1273 13.1857 16.2878 13.3062C16.372 13.3976 16.3475 13.3546 17.3805 13.9602C17.573 14.0713 17.8191 14.0053 17.9302 13.8129C18.0566 13.5938 17.9494 13.3417 17.7288 13.2143ZM2.80202 9.23592C2.80202 9.01365 2.62182 8.8335 2.39952 8.8335H1.24581C1.02358 8.8335 0.843384 9.01365 0.843384 9.23592C0.843384 9.45818 1.02358 9.63838 1.24581 9.63838H2.39948C2.62182 9.63838 2.80202 9.45818 2.80202 9.23592ZM18.7541 8.83193H17.6004C17.3782 8.83193 17.198 9.01213 17.198 9.2344C17.198 9.45666 17.3782 9.63686 17.6004 9.63686H18.7541C18.9763 9.63686 19.1566 9.45666 19.1566 9.2344C19.1566 9.01213 18.9763 8.83193 18.7541 8.83193ZM3.221 12.6684L2.22186 13.2453C2.0294 13.3563 1.96342 13.6025 2.07456 13.795C2.18569 13.9875 2.43186 14.0534 2.62432 13.9423L3.62342 13.3654C3.81596 13.2543 3.8819 13.0081 3.77077 12.8156C3.65967 12.6232 3.4135 12.5572 3.221 12.6684ZM16.7871 5.76377L17.7862 5.18693C17.9787 5.07584 18.0447 4.82963 17.9336 4.63713C17.8224 4.44463 17.5762 4.37869 17.3837 4.48982L16.3846 5.06666C16.1922 5.17779 16.1262 5.42393 16.2373 5.61643C16.3485 5.80893 16.5946 5.87486 16.7871 5.76377ZM13.5964 2.9635C13.7889 3.07467 14.035 3.00865 14.1461 2.81619L14.723 1.81705C14.8341 1.62459 14.7682 1.37838 14.5757 1.26725C14.3832 1.15611 14.137 1.22213 14.0259 1.41459L13.449 2.41373C13.3379 2.60619 13.4039 2.8524 13.5964 2.9635ZM9.9828 1.98646C10.2051 1.98646 10.3852 1.80627 10.3852 1.58404V0.430293C10.3852 0.208066 10.2051 0.027832 9.9828 0.027832C9.76053 0.027832 9.58034 0.208105 9.58034 0.430293V1.584C9.5803 1.80623 9.76053 1.98646 9.9828 1.98646ZM5.81502 2.79982C5.92616 2.99229 6.17229 3.05826 6.36479 2.94713C6.55729 2.836 6.62323 2.58986 6.5121 2.3974L5.93526 1.39826C5.82417 1.2058 5.57799 1.13975 5.38549 1.25088C5.19299 1.36201 5.1271 1.60822 5.23819 1.80072L5.81502 2.79982ZM2.16299 5.15854L3.16209 5.73537C3.35456 5.84647 3.60073 5.78053 3.71186 5.58803C3.82299 5.39553 3.75702 5.14939 3.56456 5.0383L2.56542 4.46143C2.37295 4.35033 2.12674 4.41619 2.01561 4.60873C1.90452 4.80119 1.97053 5.0474 2.16299 5.15854ZM12.0898 10.2604L11.7457 10.5004C11.5284 10.6521 11.2386 10.6521 11.0213 10.5004L10.0366 9.81451C10.014 9.79865 9.98452 9.79865 9.9619 9.81451L8.97491 10.5004C8.7576 10.6521 8.46784 10.6521 8.25053 10.5004L7.9087 10.2627C7.8567 10.2237 7.7894 10.2803 7.81135 10.3351L9.51389 15.6545H10.5034L12.1871 10.3329C12.209 10.289 12.1567 10.2267 12.0898 10.2604Z" fill="#3AB4F2" />
  <path d="M10.26 2.95616C6.67008 2.80976 3.71457 5.68253 3.71457 9.2364C3.71457 11.409 4.82422 13.3291 6.50246 14.46C6.93316 14.7443 7.25777 15.1601 7.39355 15.6545H8.90574L7.26805 10.5073C7.08445 9.93163 7.73848 9.44913 8.23465 9.7964L8.57648 10.0341C8.5991 10.05 8.62855 10.05 8.65117 10.0341L9.63816 9.34816C9.8532 9.19648 10.1452 9.19648 10.3603 9.34816L11.3472 10.0341C11.3698 10.05 11.3993 10.05 11.4196 10.0341L11.766 9.79413C12.2692 9.44687 12.9119 9.9405 12.7303 10.505V10.5072L11.0926 15.6545H12.6086C12.7593 15.1537 13.0987 14.7315 13.5337 14.4324C15.1907 13.3079 16.2728 11.4153 16.2834 9.25964C16.2941 5.92863 13.5911 3.08984 10.26 2.95616Z" fill="#3AB4F2" />
</svg>
