<svg width="20" height="20" viewBox="0 0 20 20" fill="none" xmlns="http://www.w3.org/2000/svg">
	<path fill-rule="evenodd" clip-rule="evenodd" d="M17 11H14C12.3429 11 11 12.343 11 14V17C11 18.657 12.3429 20 14 20H17C18.6571 20 20 18.657 20 17V14C20 12.343 18.6571 11 17 11ZM6 11H3C1.34286 11 0 12.343 0 14V17C0 18.657 1.34286 20 3 20H6C7.65714 20 9 18.657 9 17V14C9 12.343 7.65714 11 6 11ZM17 0H14C12.3429 0 11 1.343 11 3V6C11 7.657 12.3429 9 14 9H17C18.6571 9 20 7.657 20 6V3C20 1.343 18.6571 0 17 0ZM9 3V6C9 7.657 7.65714 9 6 9H3C1.34286 9 0 7.657 0 6V3C0 1.343 1.34286 0 3 0H6C7.65714 0 9 1.343 9 3Z" fill="#3AB4F2" />
</svg>
