<?xml version="1.0" encoding="UTF-8"?>
<svg xmlns="http://www.w3.org/2000/svg" xmlns:xlink="http://www.w3.org/1999/xlink" width="1000pt" height="1000pt" viewBox="0 0 1000 1000" version="1.1">
<g id="surface1">
<path style=" stroke:none;fill-rule:nonzero;fill:#6DCEFF;fill-opacity:1;" d="M 703.773438 357.082031 C 686.914063 383.1875 666.257813 402.285156 644.765625 412.195313 C 664.964844 360.421875 678.164063 298.980469 683.328125 233.191406 L 742.902344 233.191406 C 739.878906 278.882813 726.253906 322.285156 703.773438 357.082031 Z M 296.226563 357.082031 C 273.746094 322.285156 260.121094 278.882813 257.097656 233.191406 L 316.671875 233.191406 C 321.835938 298.980469 335.039063 360.421875 355.234375 412.195313 C 333.746094 402.289063 313.085938 383.1875 296.226563 357.082031 Z M 762.980469 194.320313 L 685.421875 194.320313 C 685.664063 186.214844 685.796875 178.066406 685.796875 169.875 C 685.796875 163.167969 680.359375 157.730469 673.648438 157.730469 L 326.351563 157.730469 C 319.640625 157.730469 314.203125 163.167969 314.203125 169.875 C 314.203125 178.066406 314.335938 186.214844 314.578125 194.320313 L 237.019531 194.320313 C 226.285156 194.320313 217.585938 203.023438 217.585938 213.757813 C 217.585938 273.871094 233.914063 332.265625 263.570313 378.175781 C 277.960938 400.449219 294.726563 418.679688 313.394531 432.359375 C 333.222656 446.886719 354.167969 455.523438 375.648438 458.03125 L 375.769531 456.96875 C 397.648438 497.53125 423.648438 526.167969 451.96875 541.316406 C 464.796875 549.578125 465.921875 571.882813 465.429688 584.570313 C 464.640625 604.921875 458.902344 629.289063 449.554688 652.480469 L 372.242188 652.480469 C 365.53125 652.480469 360.09375 657.917969 360.09375 664.628906 L 360.09375 762.3125 L 325.453125 762.3125 C 318.742188 762.3125 313.304688 767.75 313.304688 774.457031 L 313.304688 830.125 C 313.304688 836.832031 318.742188 842.269531 325.453125 842.269531 L 672.753906 842.269531 C 679.460938 842.269531 684.898438 836.832031 684.898438 830.125 L 684.898438 774.457031 C 684.898438 767.75 679.460938 762.3125 672.753906 762.3125 L 639.90625 762.3125 L 639.90625 664.628906 C 639.90625 657.917969 634.46875 652.480469 627.757813 652.480469 L 550.507813 652.480469 C 529.734375 602 528.648438 552.917969 548.722656 540.957031 L 548.71875 540.949219 C 576.773438 525.710938 602.527344 497.203125 624.230469 456.96875 L 624.351563 458.03125 C 645.832031 455.523438 666.777344 446.886719 686.605469 432.359375 C 705.273438 418.679688 722.035156 400.449219 736.429688 378.175781 C 766.082031 332.265625 782.414063 273.871094 782.414063 213.757813 C 782.414063 203.023438 773.714844 194.320313 762.980469 194.320313 "/>
</g>
</svg>
